<?xml version="1.0" encoding="utf-8"?>
<!-- Generator: Adobe Illustrator 24.0.1, SVG Export Plug-In . SVG Version: 6.00 Build 0)  -->
<svg version="1.1" id="Layer_1" xmlns="http://www.w3.org/2000/svg" xmlns:xlink="http://www.w3.org/1999/xlink" x="0px" y="0px"
	 viewBox="0 0 227.87 72" style="enable-background:new 0 0 227.87 72;" xml:space="preserve">
<style type="text/css">
	.st0{fill:#F5365C;}
	.st1{fill:none;stroke:#FFFFFF;stroke-width:0.25;stroke-linecap:round;stroke-miterlimit:10;}
	.st2{fill:#172B4D;}
	.st3{fill:#172B4D;stroke:#172B4D;stroke-miterlimit:10;}
	.st4{fill:#FB6340;}
</style>
<path class="st0" d="M102.83,43.91c1.77,1.98,14.71,15.99,33.56,13.58c14.09-1.8,22.82-11.66,25.24-14.6
	c-1.32,3.62-4.27,10.25-10.39,15.28c-10.55,8.68-24.99,8.09-35.34,1.36C108.63,54.81,104.7,47.91,102.83,43.91z"/>
<path class="st0" d="M159.36,66.54c-0.32,0.83-0.9,2.33-2.3,2.97c-1.35,0.61-2.88,0.17-3.86-0.68c-1.31-1.14-0.82-2.3-2.08-4.84
	c-1.36-2.76-3.29-4.13-4.53-5.01c-1.63-1.16-2.37-0.9-2.69-0.74c-0.4,0.19-0.94,0.68-1.35,1.18c-0.18,0.07-0.38,0.14-0.59,0.21
	c-0.17,0.05-0.33,0.1-0.49,0.14c0.4-1.33,1.58-5.25,4.9-7.33c0.8-0.5,2.37-1.48,4.23-1.1c0.98,0.2,1.88,0.93,3.64,2.38
	c1.77,1.46,2.66,2.19,3.49,3.39c0.59,0.85,1.65,2.44,2,4.84C159.86,62.86,160.1,64.62,159.36,66.54z"/>
<path class="st1" d="M144.48,55.36c0.32-0.35,1.14-1.13,2.38-1.32c0.18-0.03,0.89-0.12,1.78,0.17c0.41,0.13,1.09,0.43,2.9,2.33
	c1.05,1.11,1.75,1.86,2.56,3.1c0.5,0.78,1.08,1.67,1.52,3.01c0.24,0.73,0.37,1.36,0.45,1.83"/>
<g>
	<path class="st2" d="M105.82,13.15v29.78h-8.16V13.15H105.82z"/>
	<path class="st2" d="M118.76,21.18v21.75h-8.16V21.18H118.76z M114.7,11.47c1.11,0,2.06,0.39,2.87,1.17
		c0.81,0.78,1.21,1.7,1.21,2.76c0,1.13-0.38,2.07-1.15,2.79s-1.74,1.09-2.93,1.09c-1.19,0-2.17-0.36-2.93-1.09
		c-0.76-0.73-1.14-1.66-1.14-2.79c0-1.06,0.4-1.98,1.21-2.76C112.64,11.86,113.6,11.47,114.7,11.47z"/>
	<path class="st2" d="M136.91,32.92l8.09-0.31c-0.23,3.14-1.4,5.72-3.51,7.75c-2.11,2.02-4.68,3.03-7.7,3.03
		c-3.2,0-5.9-1.11-8.1-3.34c-2.2-2.23-3.31-4.95-3.31-8.18c0-3.07,1.11-5.69,3.34-7.88c2.23-2.18,4.89-3.27,8.01-3.27
		c2.72,0,5.12,0.86,7.2,2.58c2.08,1.72,3.37,3.91,3.88,6.57l-8.27,0.31c-0.71-0.93-1.61-1.4-2.71-1.4c-0.93,0-1.69,0.31-2.29,0.92
		c-0.6,0.61-0.89,1.38-0.89,2.31c0,0.95,0.32,1.74,0.95,2.38c0.63,0.64,1.42,0.96,2.37,0.96C135.35,35.34,136.33,34.53,136.91,32.92
		z"/>
	<path class="st2" d="M156.73,21.18v21.75h-8.16V21.18H156.73z M152.67,11.47c1.11,0,2.06,0.39,2.87,1.17
		c0.81,0.78,1.21,1.7,1.21,2.76c0,1.13-0.38,2.07-1.15,2.79s-1.74,1.09-2.93,1.09c-1.19,0-2.17-0.36-2.93-1.09
		c-0.76-0.73-1.14-1.66-1.14-2.79c0-1.06,0.4-1.98,1.21-2.76C150.61,11.86,151.56,11.47,152.67,11.47z"/>
	<path class="st2" d="M171.85,20.72c3.08,0,5.73,1.11,7.93,3.33c2.2,2.22,3.31,4.88,3.31,7.97c0,3.14-1.12,5.82-3.35,8.03
		s-4.93,3.32-8.08,3.32c-3.16,0-5.86-1.11-8.09-3.33c-2.24-2.22-3.36-4.89-3.36-8.02c0-3.19,1.12-5.87,3.36-8.04
		C165.79,21.81,168.56,20.72,171.85,20.72z M171.63,28.77c-0.87,0-1.61,0.32-2.22,0.95c-0.61,0.63-0.92,1.41-0.92,2.32
		c0,0.9,0.31,1.67,0.93,2.31c0.62,0.64,1.36,0.96,2.21,0.96c0.87,0,1.62-0.32,2.24-0.96s0.93-1.41,0.93-2.31
		c0-0.92-0.31-1.69-0.92-2.32C173.26,29.09,172.51,28.77,171.63,28.77z"/>
	<path class="st2" d="M186.48,21.48h8.16v12.28c0,1.24,0.52,1.85,1.55,1.85c1.02,0,1.53-0.62,1.53-1.85V21.48h8.16v12.13
		c0,2.82-0.94,5.2-2.81,7.15c-1.88,1.94-4.17,2.91-6.89,2.91c-3.1,0-5.59-1.13-7.48-3.38c-1.47-1.76-2.2-4.2-2.2-7.33V21.48z"/>
	<g>
		<path class="st3" d="M221.73,25.46c0,0.15-0.11,0.36-0.34,0.62c-0.42-0.11-0.84-0.16-1.26-0.16c-0.89,0-1.63,0.2-2.23,0.59
			c-0.72,0.46-1.08,1.1-1.08,1.94c0,0.53,0.38,1.21,1.15,2.03c1.16,1.23,1.87,2.06,2.14,2.49c0.77,1.16,1.15,2.4,1.15,3.72
			c0,0.78-0.15,1.6-0.45,2.47c-0.35,0.96-0.78,1.66-1.31,2.1c-1.11,0.97-2.42,1.8-3.91,2.47c-1.61,0.7-3.09,1.05-4.45,1.05
			c-0.3,0-0.97-0.83-2.02-2.48s-1.57-2.66-1.57-3.03c0-0.14,0.08-0.22,0.25-0.25c1.05-0.2,2.11-0.4,3.18-0.59
			c1.32-0.43,1.99-1.13,1.99-2.1c0-0.67-0.38-1.45-1.15-2.33c-1.37-1.54-2.08-2.35-2.14-2.44c-0.77-1.1-1.15-2.25-1.15-3.47
			c0-2.28,1.14-4.23,3.43-5.83c2.05-1.42,4.24-2.13,6.57-2.13c0.24,0,0.83,0.82,1.78,2.46C221.25,24.23,221.73,25.18,221.73,25.46z"
			/>
	</g>
	<path class="st0" d="M28.07,10.62c-0.05,1.76,0.04,3.61,0,5.38c-0.6,0.06-1.84,0.07-2.8,0.77c-2.36,1.72-2.14,4.75-2.12,5.02
		c1.67-0.05,3.24-0.03,4.91-0.08c0.05,1.63-0.06,3.14-0.01,4.77c-1.72,0-3.34-0.08-5.06-0.08c0.09,5.51,0.09,11.1,0.18,16.61
		c-2.03,0.05-4.07,0.09-6.1,0.14c-0.05-5.65-0.11-10.75-0.16-16.4c-1.08,0-2.19,0-3.27,0c-0.14-1.45,0.14-3.43,0-4.88
		c1.26,0,2.17,0,3.43,0c-0.04-0.93,0-2.39,0.54-4.07c0.81-2.5,2.26-4.01,2.57-4.34C23.03,10.57,27.1,10.64,28.07,10.62z"/>
	<path class="st0" d="M38.12,21.54c-6.07,0-10.99,4.99-10.99,11.13S32.06,43.8,38.12,43.8c6.07,0,10.99-4.99,10.99-11.13
		S44.19,21.54,38.12,21.54z M38.16,38.27c-2.72,0-4.92-2.5-4.92-5.59s2.2-5.59,4.92-5.59s4.92,2.5,4.92,5.59
		S40.88,38.27,38.16,38.27z"/>
	<path class="st0" d="M61.05,21.33c-6.07,0-10.99,4.99-10.99,11.13S54.98,43.6,61.05,43.6c6.07,0,10.99-4.99,10.99-11.13
		S67.12,21.33,61.05,21.33z M61.09,38.06c-2.72,0-4.92-2.5-4.92-5.59c0-3.09,2.2-5.59,4.92-5.59s4.92,2.5,4.92,5.59
		C66.01,35.56,63.8,38.06,61.09,38.06z"/>
	<path class="st0" d="M93.4,33.15c-0.1-6.54-0.21-13.08-0.31-19.63c-1.87,0.04-3.74,0.08-5.61,0.12c0.04,3.53,0.08,7.06,0.12,10.59
		c-0.69-0.34-3.64-1.72-7.23-0.69c-3.22,0.93-4.9,3.22-5.36,3.86c-2.75,3.86-1.73,8.15-1.56,8.85c0.21,0.83,0.91,3.52,3.43,5.55
		c4.21,3.4,9.47,1.72,9.78,1.62c0.51-0.17,3.56-1.25,5.42-4.24c0.36-0.58,1.18-1.93,1.37-3.86C93.55,34.44,93.48,33.69,93.4,33.15z
		 M83.32,38.76c-2.54,0-4.6-2.33-4.6-5.2c0-2.87,2.06-5.2,4.6-5.2c2.54,0,4.6,2.33,4.6,5.2C87.92,36.43,85.86,38.76,83.32,38.76z"/>
</g>
<circle class="st4" cx="114.89" cy="13.53" r="6.66"/>
<circle class="st4" cx="152.47" cy="13.53" r="6.66"/>
</svg>
