<svg xmlns="http://www.w3.org/2000/svg" viewBox="0 0 2646.23 685.19"><defs><style>.cls-1{fill:#f5365c;}.cls-2{fill:#fff;}.cls-3{fill:#172b4d;}.cls-4{fill:#fb6340;}</style></defs><g id="Layer_2" data-name="Layer 2"><g id="Layer_1-2" data-name="Layer 1"><path class="cls-1" d="M1200,470.65c18,20.14,149.31,162.32,340.6,137.9,143-18.26,231.58-118.37,256.21-148.24-13.38,36.76-43.34,104-105.5,155.13-107.12,88.11-253.64,82.14-358.68,13.79C1258.88,581.24,1219,511.25,1200,470.65Z"/><path class="cls-1" d="M197.32,21.6c-.62,23.74.6,48.7,0,72.45-8.21.76-25.09.89-38.21,10.35-32.12,23.17-29.21,64-28.95,67.68,22.78-.61,44.22-.41,67-1,.62,21.92-.79,42.31-.18,64.23-23.4,0-45.57-1-69-1,1.23,74.27,1.23,149.57,2.46,223.84l-83.13,1.83c-.62-76.1-1.54-144.89-2.16-221H.53c-1.85-19.48,1.85-46.27,0-65.75h46.8a153.17,153.17,0,0,1,7.39-54.79c11-33.67,30.75-54.08,35.1-58.44C128.7,20.94,184.14,21.9,197.32,21.6Z"/><path class="cls-1" d="M322.07,194.94c-75.27,0-136.29,61.13-136.29,136.54S246.8,468,322.07,468s136.29-61.13,136.29-136.54S397.34,194.94,322.07,194.94Zm.46,205.23c-33.7,0-61-30.69-61-68.55s27.32-68.55,61-68.55,61,30.69,61,68.55S356.24,400.17,322.53,400.17Z"/><path class="cls-1" d="M606.42,192.38c-75.27,0-136.29,61.13-136.29,136.54s61,136.54,136.29,136.54,136.29-61.13,136.29-136.54S681.69,192.38,606.42,192.38Zm.47,205.22c-33.7,0-61-30.69-61-68.55s27.32-68.55,61-68.55,61,30.69,61,68.55S640.59,397.6,606.89,397.6Z"/><path class="cls-1" d="M1029.68,325.84l-4.2-261.73-75.64,1.66L951.52,207c-9.32-4.6-49.13-23-97.49-9.14-43.42,12.42-66.06,42.88-72.28,51.51-37,51.43-23.34,108.72-21,118,2.78,11.09,12.32,46.88,46.22,73.95,56.77,45.31,127.76,23,131.95,21.6,6.87-2.29,48.09-16.65,73.12-56.5,4.85-7.72,15.85-25.68,18.49-51.51A112.26,112.26,0,0,0,1029.68,325.84Zm-136,74.78c-34.24,0-62-31.05-62-69.34s27.76-69.35,62-69.35,62,31.05,62,69.35S928,400.62,893.72,400.62Z"/><path class="cls-1" d="M1687.5,562.15c10.82,6.12,25,14.46,41.15,25,28.12,18.29,33.29,24.21,37.13,30.24,1.57,2.45,15.28,24.6,8.66,47.75-1.22,4.25-3.24,11-9.4,15.54-7.5,5.59-17.88,5.59-25.29,2.06-4.74-2.26-12.66-3.45-23.14-17.7l-18.17-24.42c-1.43-1.75-9.6-9.09-20.18-19.57-8.43-8.35-21.51-19.21-37.4-30.16C1653.51,582,1674.84,571,1687.5,562.15Z"/><path class="cls-2" d="M1705.1,591.08a16.27,16.27,0,0,1-2.3,9,16,16,0,0,1-10.22,7.12,86.79,86.79,0,0,1,15.17,4c7,2.56,12.66,4.61,18.41,9.7a61.17,61.17,0,0,1,10.67,13c.81,1.3,1.52,2.58,1.59,2.7a66.2,66.2,0,0,1,4.66,10.26,54.36,54.36,0,0,0-2.52-16.25,56.33,56.33,0,0,0-11-19.47c-3-3.38-6.67-6.34-14.09-12.25C1711.18,595.55,1707.58,592.88,1705.1,591.08Z"/><path class="cls-3" d="M1164.65,471.81h-77.24V62.73h77.24Z"/><path class="cls-3" d="M1227.5,109.07q0-17.31,11.59-28.49t31.56-11.19q19.69,0,31.42,11.19t11.72,28.49q0,17.58-11.85,28.77T1270.65,149q-19.45,0-31.3-11.18T1227.5,109.07Zm81.76,362.74H1232V183.64h77.23Z"/><path class="cls-3" d="M1492.5,415.08q21.3,0,34.62-11.72T1541,372.2h72.17a98.71,98.71,0,0,1-16,53.67q-15.72,24.38-43,37.82t-60.32,13.45q-61.78,0-97.48-39.29t-35.68-108.52v-5.06q0-66.58,35.42-106.27t97.21-39.68q54.06,0,86.69,30.76T1613.14,291H1541q-.54-22.49-13.85-36.54T1492,240.37q-26.89,0-40.61,19.61t-13.72,63.61v8q0,44.55,13.59,64T1492.5,415.08Z"/><path class="cls-3" d="M1656.56,109.07q0-17.31,11.58-28.49t31.56-11.19q19.71,0,31.43,11.19t11.72,28.49q0,17.58-11.85,28.77T1699.7,149q-19.44,0-31.29-11.18T1656.56,109.07Zm81.76,362.74h-77.24V183.64h77.24Z"/><path class="cls-3" d="M1789.72,325.06q0-42.87,16.51-76.43t47.54-51.94q31-18.37,72-18.37,58.34,0,95.22,35.69T2062.17,311l.54,19.71q0,66.32-37,106.4t-99.34,40.08q-62.32,0-99.48-39.95t-37.15-108.66Zm77,5.47q0,41.07,15.45,62.81t44.21,21.74q28,0,43.67-21.47t15.72-68.68q0-40.28-15.72-62.42t-44.21-22.14q-28.23,0-43.67,22T1866.69,330.53Z"/><path class="cls-3" d="M2282.69,442.52q-28.5,34.62-78.83,34.62-46.34,0-70.71-26.64t-24.9-78V183.64h77V370q0,45.08,41,45.06,39.15,0,53.8-27.2V183.64h77.24V471.81h-72.45Z"/><path class="cls-3" d="M2571.39,392.18q0-14.12-14-22.24t-44.87-14.51q-102.81-21.58-102.81-87.36,0-38.35,31.83-64t83.23-25.7q54.86,0,87.75,25.83t32.89,67.12h-77q0-16.51-10.65-27.3t-33.29-10.79q-19.44,0-30.1,8.79a27.75,27.75,0,0,0-10.65,22.37q0,12.78,12.12,20.64t40.88,13.58q28.77,5.73,48.47,12.92,61,22.38,61,77.5,0,39.42-33.82,63.79t-87.36,24.37q-36.23,0-64.32-12.92t-44.07-35.42q-16-22.5-16-48.61h73q1.07,20.52,15.18,31.43t37.82,10.92q22.11,0,33.42-8.39T2571.39,392.18Z"/><circle class="cls-4" cx="1271.5" cy="79.72" r="79.72"/><circle class="cls-4" cx="1701.49" cy="81.03" r="79.72"/></g></g></svg>