<?xml version="1.0" encoding="utf-8"?>
<!-- Generator: Adobe Illustrator 24.0.1, SVG Export Plug-In . SVG Version: 6.00 Build 0)  -->
<svg version="1.1" id="Layer_1" xmlns="http://www.w3.org/2000/svg" xmlns:xlink="http://www.w3.org/1999/xlink" x="0px" y="0px"
	 viewBox="0 0 190.19 248.6" style="enable-background:new 0 0 190.19 248.6;" xml:space="preserve">
<style type="text/css">
	.st0{fill:#E9EAED;}
	.st1{fill:#FFFFFF;}
	.st2{stroke:#000000;stroke-miterlimit:10;}
	.st3{fill:#D5DBE7;}
	.st4{fill:#A70043;}
	.st5{fill:#2E3192;}
	.st6{fill:none;stroke:#000000;stroke-miterlimit:10;}
	.st7{fill:#221F72;}
	.st8{fill:#B1B0C7;}
	.st9{fill:#D70B59;}
	.st10{fill:#FBB040;}
	.st11{fill:#434957;}
</style>
<path class="st0" d="M33.08,134.79c-6.08,3.59-14.28,8.44-20.72,18.34c-2.94,4.52-8.7,13.39-7.13,23.77
	c1.1,7.25,4.71,8.28,8.15,16.3c6.38,14.87-0.93,23.26,2.72,32.6c6.67,17.12,42.49,18.06,53.32,18.34
	c3.43,0.09,11.62,0.25,22.32-1.35c7.41-1.11,48.13-7.86,63.94-34.31c3.25-5.44,4.14-9.52,3.74-13.25c-0.61-5.6-4.05-9.39-14.6-18.68
	c-21.01-18.5-24.09-18.21-28.53-26.15c-3.77-6.73-3.32-10.11-8.49-15.62c-6.05-6.46-13.28-8.88-16.3-9.85
	c-8.69-2.8-15.78-2.02-24.11-1.02C59.94,124.82,47.11,126.5,33.08,134.79z"/>
<g>
	<path class="st1" d="M92.63,167.61c0,0-35.66,38.5-36.68,39.63s-3.62,2.04-4.75,2.26c-1.14,0.23-1.82-0.11-3.4-1.13
		c-1.59-1.02-2.72-3.4-2.72-3.4l-16.89-19.98l-0.74-0.87c-0.62-0.92-0.99-2.03-0.99-3.22c0-3.16,2.56-5.72,5.72-5.72
		c1.33,0,2.56,0.46,3.53,1.23l0.01,0.02l1.32,1.47l15.06,16.88l39.4-43.47L92.63,167.61z"/>
	<path class="st2" d="M93.58,93.11c-3.53,4.22-4.83,8.39-5.43,10.42c-0.69,2.29-1.48,5.04-1.13,8.6c0.37,3.76,1.8,6.42,2.26,7.25
		c1.07,1.88,1.72,2.13,2.94,3.85c0.57,0.8,2.17,3.21,3.4,8.6c1.35,5.98,0.71,8.88,1.13,12.45c0.81,6.83,4.82,9.91,10.42,17.43
		c7.88,10.6,4.95,11.41,12.45,22.19c2.21,3.18,7.51,10.45,16.08,14.94c2.12,1.11,4.53,2.11,7.47,1.81c3.78-0.38,7.45-2.79,9.28-6.11
		c2.91-5.29,0.9-12.42-1.58-16.53c-1.65-2.72-3.54-4.17-4.08-7.7c-0.18-1.21-0.59-3.87,0.91-5.89c0.68-0.92,1.56-1.44,7.7-3.17
		c4.91-1.39,5.61-1.41,6.57-2.26c2.88-2.57,2.35-7.45,2.26-8.15c-0.27-2.28-1.28-5.06-9.96-13.13c-6.31-5.86-9.46-8.79-14.26-12
		c-3.99-2.67-5.81-3.38-7.7-6.11c-2.41-3.5-2.81-7.24-3.17-11.09c-0.72-7.67,1.32-8.94-0.23-13.58c-0.46-1.39-2.28-6.86-7.47-8.6
		c-4.34-1.46-8.34-0.39-9.28,0.13c-1.41-0.81-4.13-1.09-7.47-0.81C99.46,86.08,96.16,90.03,93.58,93.11z"/>
	<path class="st3" d="M101.96,166.23c-1.33-0.45-10.69-3.61-12.91-12.23c-1.7-6.61,1.39-14.19,5.89-17.89
		c1.87-1.54,3.81-2.26,5.43-4.98c1.82-3.05,2-6.53,2.04-7.47c0.17-4.05-1.15-5.05-0.23-6.57c1.53-2.52,7.48-3.6,10.64-0.45
		c0.52,0.52,0.82,1.13,1.81,6.79c0.85,4.83,0.79,5.34,1.13,6.79c0.95,3.96,2.6,5.17,4.98,9.28c2.76,4.77,5.47,9.45,4.75,14.72
		c-0.87,6.41-6.33,10.18-7.02,10.64C111.59,169.48,103.81,166.85,101.96,166.23z"/>
	<path class="st4" d="M77.95,202.6c-1.13,3.85-2.26,7.7-3.4,11.55c0.9,0.65,2.35,1.54,4.3,2.04c1.91,0.49,3.41,0.38,5.66,0.23
		c1.07-0.07,0.87-0.12,5.66-0.91c3.14-0.52,3.72-0.58,4.08-1.13c0.96-1.51-1.23-4.46-1.81-5.21
		C87.61,206.98,82.78,204.79,77.95,202.6z"/>
	<path class="st5" d="M122.62,225.94c-1.72-2.12-4.17-5.25-7.02-9.28c0.08,7.77,0.12,12.47,0.2,20.24
		c-7.92,3.25-17.4,4.72-24.89,6.02c-0.84-4.66-0.47-2.78-1.12-7.92c-0.72-5.68-1.23-11.13-1.58-16.3c-0.39-2.76-0.87-5.62-0.91-6.57
		c-0.02-0.43,0.37-2.22,1.13-6.11c1.05-5.35,0.73-5.38,1.13-5.89c2.55-3.23,10.56,3.6,23.32,3.85c9.01,0.18,14.69-3.04,20.6,0
		c0.9,0.46,6.3,3.38,6.34,3.4c0,0,5.97,12.87,5.99,12.91c-5.78,5.32-12.92,9.08-18.35,11.9"/>
	<path class="st6" d="M116.18,253.09"/>
	<path class="st3" d="M156.19,102.44c0.88-4.27,1.75-8.55,2.63-12.82c0.76-2.77,1.53-5.55,2.29-8.32c0.56-0.93,0.72-1.7,0.76-2.21
		c0.16-1.7-0.71-2.49-0.68-4.5c0.02-1.08,0.27-0.91,0.34-2.04c0.19-3.03-1.62-4.35-0.85-6.37c0.09-0.23,0.34-0.89,0.76-0.93
		c0.67-0.07,1.39,1.45,1.87,2.46c0.46,0.98,0.4,1.14,0.85,2.04c0.63,1.26,0.94,1.88,1.53,2.21c0.34,0.19,1.03,0.43,3.99-0.59
		c1.77-0.61,1.87-0.82,2.97-1.19c2.73-0.93,6.03-0.99,6.37-0.08c0.14,0.36-0.22,0.85-0.59,1.36c-0.6,0.81-1.04,0.8-1.61,1.44
		c-0.86,0.97-0.41,1.65-1.1,2.38c-0.73,0.78-1.49,0.28-3.06,0.76c-0.98,0.3-2.07,1.28-4.25,3.23c-1.22,1.09-1.84,1.65-2.29,2.29
		c-0.85,1.2-1.19,2.3-1.53,3.4c-0.37,1.21-0.39,1.72-0.85,4.5c-0.35,2.1-0.34,1.8-0.68,3.82c-0.24,1.43-0.55,3.39-0.85,5.77
		c-0.2,1.16-0.4,2.32-0.59,3.48c-0.2,0.4-0.4,0.79-0.59,1.19C159.42,103.29,157.81,102.87,156.19,102.44z"/>
	<path class="st3" d="M42.36,73.32c0.23-0.49,1.38-0.42,2.6-0.34c0.63,0.04,1.46,0.09,2.49,0.45c0.7,0.24,1.57,0.77,3.28,1.81
		c1.18,0.72,1.3,0.82,1.7,0.91c0.87,0.18,2.03,0.03,2.83-0.68c0.56-0.5,0.35-0.74,1.25-2.49c0.71-1.37,1.19-1.91,1.58-2.26
		c0.45-0.41,1.14-1.02,1.7-0.79c0.39,0.16,0.62,0.69,0.57,1.13c-0.07,0.54-0.54,0.63-1.02,1.25c-0.85,1.09-0.7,2.49-0.68,2.72
		c0.09,0.86,0.44,1.01,0.79,1.92c0.62,1.61,0.06,2.47,0.11,5.09c0.03,1.52,0.25,2.68,0.34,3.17c0.35,1.81,0.91,3.23,1.36,4.19
		c2.11,6.98,4.23,13.96,6.34,20.94c-2.23,0.87-4.45,1.74-6.68,2.6c-0.64-2.42-1.28-4.83-1.92-7.25c-0.45-2.53-0.91-5.06-1.36-7.58
		c-0.47-2.62-0.36-4.04-0.91-7.81c-0.25-1.71-0.49-3.1-1.25-4.75c-0.34-0.74-0.93-2.01-2.15-3.28c-0.85-0.89-1.61-1.36-3.06-2.26
		c-1.8-1.13-2.13-1.06-3.74-2.15c-0.73-0.49-1.53-1.1-2.38-1.92C43.18,74.95,42.09,73.89,42.36,73.32z"/>
	<path class="st7" d="M89.4,231.21c-0.74-7.25-1.47-14.49-2.21-21.74c2.04-1.19,4.08-2.38,6.11-3.57
		c5.32,0.34,10.64,0.68,15.96,1.02c0.11,0.68,0.23,1.36,0.34,2.04c0.04,0.83,0.05,3.38-1.7,5.77c-0.39,0.54-1.41,1.9-3.23,2.72
		c-1.75,0.78-2.85,0.43-6.79,0.68c-1.52,0.1-2.77,0.24-3.57,0.34c0.13,1.27,0.16,3.06-0.34,5.09C93,227.61,90.56,230.15,89.4,231.21
		z"/>
	<path class="st8" d="M113.94,121.99c0.69,0.39,1.04,1.39,0.93,2.12c-0.08,0.52-0.38,0.85-0.85,1.36c-1.55,1.67-2.01,2.14-2.55,2.63
		c-0.62,0.57-2.05,0.46-4.67,0.51c-2.97,0.05-3.71-0.14-4.08-0.68c-0.15-0.22-0.11-0.31-0.25-1.53c-0.26-2.22-0.48-2.71-0.17-2.97
		c0.33-0.28,0.85,0.08,1.95,0.34c0,0,1.1,0.26,3.14,0.17C110.98,123.79,112.5,121.17,113.94,121.99z"/>
	<path class="st3" d="M98.25,117.26c0.58-0.04,0.97,1.93,1.81,3.85c0.5,1.14,1.39,3.17,3.17,4.53c2.12,1.62,4.61,1.6,5.21,1.58
		c3.63-0.09,6.1-2.51,7.92-4.3c2.43-2.39,3.59-4.82,4.3-6.34c0.81-1.75,2.22-4.85,2.26-9.06c0.03-2.64,0.07-6.43-2.49-9.51
		c-1.94-2.33-4.34-3.02-8.83-4.3c-3.73-1.07-5.77-1.65-7.92-0.68c-2.97,1.34-4.12,4.7-4.53,5.89c-1.66,4.86,0.88,7.2-1.36,10.42
		c-0.65,0.94-1.71,1.94-2.26,3.85c-0.34,1.16-0.33,1.1-0.27,2.09c0.08,1.2,0.13,1.78,0.34,2.06c0.31,0.41,0.98,0.74,1.44,0.61
		C97.73,117.75,97.9,117.28,98.25,117.26z"/>
	<path class="st2" d="M89.14,108.25c0.31,0.96-0.85,1.86,0.48,3.06c1.41,1.27-2.87,1.91-1.24,2.25c0.72,0.15,1.48,0.26,3.48,0.35
		c3.48,0.17,5.23,0.27,7.25,0c1.41-0.19,3.56-0.5,6.11-1.58c1.93-0.82,5.8-2.81,8.83-7.02c1.43-1.99,2.25-3.87,2.72-5.21
		c0.02,2.08,0.5,3.58,0.91,4.53c0.48,1.13,1.15,2.11,2.49,4.08c0.91,1.33,0.95,1.28,1.58,2.26c0.78,1.21,1.07,1.85,2.04,3.62
		c1.25,2.28,1.87,3.42,2.04,3.4c0.58-0.09,0.69-4.39-0.91-20.83c-8.75-1.13-15.71-6.58-24.47-7.71c-2.42,2.79-6.63,9.9-9.04,12.69
		C90.64,104.18,89.89,106.22,89.14,108.25"/>
	<path class="st1" d="M97.98,134.14c-0.9-0.34-5.41,7.06-7.7,16.08c-1.4,5.5-1.63,10.27-1.58,13.58
		c-0.68,8.91-1.36,17.81-2.04,26.72c-0.38,5.58-0.75,11.17-1.13,16.75c1.28,0.17,3.18,0.49,5.43,1.13c3.36,0.95,3.76,1.55,5.66,1.81
		c3.68,0.5,4.3-1.45,7.92-1.36c3.53,0.09,3.86,1.96,8.6,3.17c2.41,0.61,4.48,0.56,8.6,0.45c6.79-0.18,10.18-0.27,11.77-2.26
		c1.94-2.44,1.02-6.33,0.23-8.6c-3.02-20.38-6.04-40.75-9.06-61.13c-2.11-2.64-4.23-5.28-6.34-7.92c0.86,3.35,0.97,6.17,0.91,8.15
		c-0.11,3.11-0.37,10.93-5.43,14.04c-0.68,0.42-2.47,1.52-4.53,1.13c-1.89-0.35-3.65-1.71-7.57-7.25c-3.7-5.24-3.32-5.86-3.75-7.7
		C97.05,137.03,98.52,134.34,97.98,134.14z"/>
	<path class="st9" d="M116.18,129.7c1.6,1.1,4.18,2.51,7.47,2.72c4.62,0.29,8.05-1.95,13.25-5.43c4.99-3.35,8.25-5.54,11.55-9.85
		c6.06-7.92,7.13-16.3,7.4-18.65c0.03-0.29,0.06-0.54,0.07-0.71c0.26,0.32,1.34,1.56,3.23,1.87c2.08,0.34,3.61-0.72,3.91-0.93
		c-0.09,2.66-0.4,6.59-1.44,11.21c-2.15,9.5-6.12,16.16-11.21,24.54c-7.4,12.19-12.14,19.02-12.14,19.02
		c-2.03,2.93-3.87,5.46-4.98,9.51c-1.1,4.01-0.88,7.33-0.45,13.13c0.45,6.17,0.68,9.26,1.81,12.68c0.67,2.04,3.5,9.9,7.92,16.08
		c0.56,0.78,2.33,3.19,2.04,6.11c-0.06,0.63-0.19,1.92-1.13,2.72c-1.3,1.1-3.08,0.34-5.89,0c-5.76-0.7-7.12,1.43-9.28,0
		c-1.6-1.06-1.5-2.67-2.94-7.92c-1.29-4.69-2.07-5.98-2.94-8.83c-1.87-6.11-1.82-11.84-1.81-21.28c0.01-15.48,0-23.3-0.45-27.4
		C119.23,140.13,117.45,133.68,116.18,129.7z"/>
	<path class="st9" d="M57.75,104.91c0.33,0.21,2.67,1.6,5.43,0.68c2.06-0.69,3.1-2.24,3.4-2.72c1.03,1.79,2.54,4.37,4.42,7.47
		c4.13,6.85,5.05,8,5.77,8.83c2.19,2.52,4.17,4.03,7.81,6.79c2.23,1.69,4.21,3.18,7.13,4.75c2.82,1.51,5.32,2.46,7.13,3.06
		c-0.22,3.99-0.62,10-1.36,17.32c-1.02,10.05-1.59,11.68-2.38,20.38c-0.48,5.33-1.13,12.65-1.02,22.08
		c0.08,7.09,0.56,13.03,1.02,17.32c-2.36-0.42-5.64-0.75-9.51-0.34c-4.37,0.46-7.85,1.68-10.19,2.72c0.56-2.7,1.47-6.98,2.72-12.23
		c2.06-8.71,2.98-11.44,4.42-18.34c1.7-8.17,2.54-12.34,2.04-16.3c-0.51-4.07-1.79-7.04-5.43-13.92
		c-6.04-11.41-9.45-16.34-12.23-21.4C63.85,125.48,60.02,116.91,57.75,104.91z"/>
	<g>
		<path class="st10" d="M53.12,9.82c-0.53-0.83-1.06-1.66-1.58-2.49c0.65-0.48,1.57-1.1,2.72-1.7c2.58-1.35,4.8-1.8,5.43-1.92
			c1.39-0.26,3.95-0.72,6.91,0.11c1.87,0.53,2.44,1.17,2.6,1.36c1.48,1.76,0.61,4.39,0.57,4.53c-0.39,1.12-1.07,1.78-1.92,2.6
			c-1.83,1.75-2.69,1.52-4.98,3.28c-1.56,1.2-2.58,2.4-3.17,3.17c-1.01,1.32-1.69,2.62-2.15,3.85c-0.65,1.75-0.62,2.7-0.57,3.17
			c0.06,0.58,0.17,1.61,0.91,2.15c0.64,0.48,1.44,0.34,2.26,0.23c4-0.55,4.81-0.45,4.81-0.45s3.24-1.35,5.49-1.82
			c0.5-0.1,2.28-0.44,4.53,0c1.82,0.36,3.26,0.64,3.96,1.81c1.02,1.71-0.21,4.16-0.45,4.64c-0.86,1.7-1.82,1.85-2.49,3.74
			c-0.28,0.79-0.58,1.62-0.34,2.6c0.39,1.62,1.97,2.57,3.17,3.28c0.76,0.45,1.44,0.74,1.92,0.91c-0.23,1.13-0.45,2.26-0.68,3.4
			c-0.78,0-2.14-0.1-3.62-0.79c-1.67-0.78-2.62-1.91-3.28-2.72c-0.96-1.17-1.79-2.18-1.92-3.62c-0.13-1.44,0.49-2.54,1.25-3.85
			c1.56-2.69,2.69-2.57,3.96-4.87c0.47-0.84,1.96-3.52,0.91-5.21c-0.75-1.2-2.45-1.36-4.87-1.58c-3.03-0.28-5.89,0.11-5.89,0.11
			s-1.34,0.19-3.4,0c-1.2-0.11-1.45-0.25-1.58-0.45c-0.42-0.64,0.43-1.74,1.58-3.74c0.74-1.29,1.36-2.64,2.04-3.96
			c2.31-4.48,2.47-5.31,2.15-6.11c-0.43-1.06-1.51-1.56-2.04-1.81C63.89,7,62.49,7.24,60.81,7.56c-1.29,0.24-1.8,0.51-3.74,1.13
			C55.38,9.24,53.99,9.61,53.12,9.82z"/>
		<path class="st10" d="M11.08,54.93c0.52,0.13,1.49,0.44,2.43,1.24c1.13,0.96,1.59,2.09,1.77,2.6c0.63-0.29,1.4-0.71,2.21-1.32
			c0.78-0.6,1.37-1.21,1.81-1.72c-0.26-0.7-0.75-1.74-1.68-2.74c-1.63-1.76-3.6-2.3-4.41-2.47c-0.37,0.72-0.74,1.44-1.1,2.16
			C11.75,53.43,11.41,54.18,11.08,54.93z"/>
		<path class="st10" d="M38.11,29.67c0.07-0.22,0.24-0.63,0.62-1.01c0.45-0.45,0.96-0.62,1.19-0.67c-0.1-0.28-0.26-0.63-0.5-1
			c-0.23-0.36-0.48-0.64-0.68-0.84c-0.31,0.09-0.78,0.26-1.24,0.63c-0.82,0.65-1.12,1.48-1.22,1.83c0.3,0.18,0.6,0.37,0.9,0.55
			C37.48,29.32,37.79,29.49,38.11,29.67z"/>
		<path class="st10" d="M79.75,68.14c-0.33-0.15-0.92-0.46-1.44-1.1c-0.62-0.76-0.79-1.55-0.84-1.91c-0.44,0.11-1,0.3-1.6,0.6
			c-0.58,0.3-1.04,0.63-1.39,0.91c0.09,0.49,0.28,1.22,0.77,1.99c0.86,1.35,2.08,1.93,2.59,2.14c0.33-0.43,0.65-0.86,0.98-1.28
			C79.13,69.04,79.44,68.59,79.75,68.14z"/>
		<path class="st10" d="M122.36,23.89c-0.39-0.38-1.09-1.13-1.53-2.24c-0.53-1.33-0.4-2.45-0.31-2.94c-0.68-0.11-1.55-0.2-2.54-0.16
			c-0.96,0.04-1.76,0.19-2.38,0.35c-0.1,0.68-0.16,1.73,0.17,2.99c0.6,2.22,2.05,3.68,2.68,4.25c0.66-0.36,1.32-0.71,1.98-1.07
			C121.06,24.68,121.71,24.28,122.36,23.89z"/>
		<path class="st10" d="M181.34,49.48c0.26-0.38,0.81-1.07,1.74-1.59c1.12-0.62,2.17-0.65,2.65-0.64c-0.04-0.59-0.15-1.35-0.4-2.19
			c-0.25-0.81-0.56-1.48-0.85-1.99c-0.65,0-1.64,0.08-2.73,0.53c-1.92,0.79-2.96,2.22-3.34,2.83c0.47,0.52,0.94,1.03,1.42,1.55
			C180.33,48.48,180.84,48.98,181.34,49.48z"/>
		<path class="st10" d="M106.21,59.8c0.07-0.33,0.25-0.95,0.79-1.58c0.65-0.76,1.46-1.11,1.84-1.26c-0.24-0.37-0.59-0.83-1.09-1.29
			c-0.48-0.45-0.96-0.78-1.36-1.02c-0.51,0.2-1.25,0.57-1.94,1.21c-1.22,1.12-1.52,2.38-1.6,2.9c0.55,0.19,1.1,0.37,1.65,0.56
			C105.07,59.47,105.64,59.64,106.21,59.8z"/>
		<path class="st10" d="M127.3,82.42c0.2,0.05,0.57,0.17,0.92,0.47c0.43,0.36,0.6,0.79,0.67,0.99c0.24-0.11,0.53-0.27,0.84-0.5
			c0.3-0.23,0.52-0.46,0.69-0.65c-0.1-0.27-0.28-0.66-0.64-1.04c-0.62-0.67-1.37-0.87-1.68-0.94c-0.14,0.27-0.28,0.55-0.42,0.82
			C127.56,81.84,127.43,82.13,127.3,82.42z"/>
		<path class="st10" d="M168.91,94.04c0.77-0.26,3.11-1.54,4.64-2.22c2.66-1.18,2.46-1.08,4.54-1.67c0.87-0.25,2.26-0.55,4.16-0.61
			c0.27-0.57,0.54-1.14,0.82-1.71c-1.07,0.11-2.23,0.28-3.46,0.54c-1.26,0.26-3.11,0.65-5.22,1.55c-1.35,0.57-2.29,1.13-3.09,1.61
			c-1.17,0.7-2.11,1.37-2.81,1.91C168.63,93.64,168.77,93.84,168.91,94.04z"/>
	</g>
	<g>
		<path class="st11" d="M161.9,32.74c0.36-0.5,0.72-1,1.09-1.5c-0.45-0.29-1.07-0.66-1.86-1.02c-1.77-0.81-3.29-1.08-3.73-1.16
			c-0.95-0.16-2.71-0.43-4.74,0.07c-1.28,0.32-1.67,0.7-1.79,0.82c-1.02,1.06-0.42,2.64-0.39,2.72c0.27,0.68,0.73,1.07,1.32,1.56
			c1.26,1.05,1.85,0.91,3.42,1.97c1.07,0.72,1.77,1.44,2.17,1.9c0.69,0.79,1.16,1.57,1.48,2.31c0.45,1.05,0.42,1.62,0.39,1.9
			c-0.04,0.35-0.12,0.97-0.62,1.29c-0.44,0.29-0.99,0.2-1.55,0.14c-2.74-0.33-3.3-0.27-3.3-0.27s-2.22-0.81-3.77-1.09
			c-0.34-0.06-1.57-0.27-3.11,0c-1.25,0.22-2.24,0.39-2.72,1.09c-0.7,1.03,0.14,2.5,0.31,2.79c0.59,1.02,1.25,1.11,1.71,2.24
			c0.19,0.47,0.4,0.97,0.23,1.56c-0.27,0.97-1.35,1.54-2.17,1.97c-0.52,0.27-0.99,0.44-1.32,0.54c0.16,0.68,0.31,1.36,0.47,2.04
			c0.54,0,1.47-0.06,2.48-0.48c1.15-0.47,1.79-1.15,2.25-1.63c0.66-0.7,1.23-1.31,1.32-2.18c0.09-0.87-0.33-1.53-0.85-2.31
			c-1.07-1.62-1.84-1.55-2.72-2.92c-0.32-0.51-1.34-2.12-0.62-3.13c0.51-0.72,1.68-0.82,3.34-0.95c2.08-0.17,4.04,0.07,4.04,0.07
			s0.92,0.11,2.33,0c0.82-0.07,1-0.15,1.09-0.27c0.29-0.38-0.29-1.05-1.09-2.24c-0.51-0.77-0.93-1.59-1.4-2.38
			c-1.58-2.69-1.7-3.19-1.48-3.67c0.29-0.64,1.03-0.94,1.4-1.09c1-0.41,1.96-0.26,3.11-0.07c0.88,0.15,1.23,0.31,2.56,0.68
			C160.34,32.39,161.3,32.61,161.9,32.74z"/>
		<path class="st11" d="M72.38,94.17c0.2,0.11,0.56,0.38,0.92,1.08c0.43,0.84,0.6,1.83,0.67,2.29c0.24-0.25,0.53-0.62,0.84-1.16
			c0.3-0.52,0.52-1.06,0.69-1.51c-0.1-0.62-0.28-1.52-0.64-2.4c-0.62-1.55-1.37-2.02-1.67-2.17c-0.14,0.63-0.28,1.27-0.42,1.9
			C72.64,92.85,72.51,93.51,72.38,94.17z"/>
		<path class="st11" d="M101.71,41.63c-0.06-0.29-0.12-0.86,0.1-1.54c0.26-0.82,0.77-1.35,1.01-1.57c-0.31-0.24-0.73-0.51-1.26-0.75
			c-0.52-0.23-1-0.36-1.39-0.45c-0.32,0.32-0.78,0.84-1.11,1.57c-0.58,1.28-0.4,2.41-0.3,2.86c0.49-0.01,0.97-0.02,1.46-0.02
			C100.72,41.69,101.22,41.66,101.71,41.63z"/>
		<path class="st11" d="M182.09,15.07c0.11-0.42,0.38-1.2,1.05-1.94c0.8-0.89,1.72-1.25,2.14-1.38c-0.22-0.51-0.55-1.14-1.03-1.81
			c-0.47-0.64-0.95-1.14-1.36-1.5c-0.57,0.2-1.42,0.57-2.25,1.31c-1.46,1.29-1.93,2.87-2.08,3.52c0.58,0.31,1.15,0.62,1.73,0.93
			C180.89,14.49,181.49,14.78,182.09,15.07z"/>
		<path class="st11" d="M127.62,54.77c-0.48-0.01-1.39-0.11-2.36-0.63c-1.17-0.63-1.79-1.54-2.04-1.96c-0.5,0.37-1.1,0.88-1.69,1.58
			c-0.57,0.67-0.98,1.32-1.27,1.85c0.36,0.57,0.98,1.39,1.99,2.09c1.77,1.24,3.6,1.35,4.34,1.35c0.19-0.7,0.38-1.4,0.56-2.11
			C127.31,56.22,127.46,55.49,127.62,54.77z"/>
		<path class="st11" d="M166.04,82.61c0.17-0.3,0.52-0.85,1.17-1.29c0.78-0.54,1.56-0.63,1.91-0.66c-0.07-0.44-0.2-0.98-0.45-1.59
			c-0.24-0.58-0.52-1.05-0.76-1.41c-0.48,0.04-1.2,0.17-1.98,0.58c-1.36,0.72-2.03,1.84-2.27,2.32c0.38,0.35,0.77,0.7,1.15,1.05
			C165.22,81.94,165.63,82.28,166.04,82.61z"/>
		<path class="st11" d="M58.4,50.8c0.31,0.34,0.84,1.03,1.12,2.04c0.34,1.22,0.12,2.24,0,2.69c0.58,0.1,1.33,0.17,2.2,0.13
			c0.84-0.05,1.55-0.19,2.11-0.35c0.15-0.62,0.31-1.59,0.13-2.74c-0.31-2.03-1.44-3.36-1.93-3.87c-0.61,0.33-1.21,0.67-1.82,1
			C59.6,50.06,59,50.43,58.4,50.8z"/>
		<path class="st11" d="M55.56,69.5c-1.04-0.91-4-4.64-5.99-6.75c-3.48-3.7-3.22-3.4-6.07-5.65c-1.19-0.94-3.13-2.27-5.94-3.4
			c-0.17-1.25-0.34-2.49-0.51-3.74c1.55,0.79,3.21,1.74,4.92,2.89c1.76,1.17,4.36,2.91,7.13,5.77c1.78,1.83,2.94,3.41,3.93,4.75
			c1.46,1.97,2.57,3.76,3.4,5.18C56.14,68.88,55.85,69.19,55.56,69.5z"/>
		<path class="st11" d="M18.12,85.2c-0.55-0.21-2.29-1.26-3.39-1.81c-1.94-0.96-1.79-0.88-3.26-1.36c-0.62-0.2-1.59-0.44-2.88-0.48
			c-0.25-0.47-0.51-0.95-0.76-1.42c0.74,0.09,1.54,0.22,2.4,0.42c0.88,0.21,2.17,0.52,3.71,1.25c0.98,0.47,1.68,0.93,2.28,1.32
			c0.88,0.57,1.59,1.12,2.13,1.57C18.27,84.86,18.19,85.03,18.12,85.2z"/>
	</g>
	<path class="st1" d="M106.7,122.34c0.31,0.29,0.91,0.78,1.81,1.02c0.34,0.09,0.76,0.2,1.3,0.11c0.97-0.15,1.59-0.83,1.92-1.19
		c0.33-0.36,0.55-0.71,0.68-0.96c-0.58,0.26-1.48,0.56-2.6,0.62c-1.81,0.09-3.2-0.51-3.85-0.85
		C106.21,121.51,106.46,121.92,106.7,122.34z"/>
</g>
</svg>
