<svg id="Layer_3" enable-background="new 0 0 64 64" height="512" viewBox="0 0 64 64" width="512" xmlns="http://www.w3.org/2000/svg"><path d="m59.914 27.184c3.64-5.112 4.101-11.483 1.233-17.044-2.906-5.638-8.71-9.14-15.147-9.14s-12.241 3.502-15.147 9.14c-1.135 2.202-1.74 4.531-1.84 6.86h-27.013c-.553 0-1 .448-1 1v7c0 1.771.776 3.36 2 4.46v27.54h-1c-.553 0-1 .447-1 1v4c0 .553.447 1 1 1h50c.553 0 1-.447 1-1v-4c0-.553-.447-1-1-1h-1v-17.978zm-27.284-16.128c2.6-5.044 7.599-8.056 13.37-8.056s10.77 3.012 13.37 8.056c2.518 4.883 2.111 10.478-1.069 14.946l-12.301 16.336-4-5.312v-.026h-.02l-8.266-10.976c-3.195-4.49-3.602-10.085-1.084-14.968zm12.37 33.278v6.666h-18v-12h13.983zm-14.037-18.964c-.19 2.03-1.884 3.63-3.963 3.63-2.206 0-4-1.794-4-4v-6h6.049c.183 2.192.823 4.35 1.914 6.37zm-17.963-6.37h8v6c0 2.206-1.794 4-4 4s-4-1.794-4-4zm-10 0h8v6c0 2.206-1.794 4-4 4s-4-1.794-4-4zm48 42h-48v-2h48zm-30-4h-12v-14h12zm28 0h-26v-15c0-.553-.447-1-1-1h-14c-.553 0-1 .447-1 1v15h-2v-26.35c.627.222 1.298.35 2 .35 2.086 0 3.924-1.071 5-2.69 1.076 1.62 2.914 2.69 5 2.69s3.924-1.071 5-2.69c1.076 1.62 2.914 2.69 5 2.69 2.376 0 4.428-1.392 5.399-3.4l7.078 9.4h-13.477c-.553 0-1 .447-1 1v14c0 .553.447 1 1 1h20c.553 0 1-.447 1-1v-7.666l2-2.656z"/><path d="m22 33h-14c-.553 0-1 .447-1 1v4c0 .553.447 1 1 1h14c.553 0 1-.447 1-1v-4c0-.553-.447-1-1-1zm-1 4h-12v-2h12z"/><path d="m46 31c7.168 0 13-5.832 13-13s-5.832-13-13-13-13 5.832-13 13 5.832 13 13 13zm3-14c0-1.221.592-2 1-2s1 .779 1 2-.592 2-1 2-1-.779-1-2zm-3-10c6.065 0 11 4.935 11 11 0 4.264-2.444 7.961-6 9.786v-7.023c1.174-.54 2-1.992 2-3.763 0-2.243-1.317-4-3-4s-3 1.757-3 4c0 1.771.826 3.223 2 3.763v7.811c-.955.271-1.959.426-3 .426s-2.045-.155-3-.426v-7.574c1.103 0 2-.897 2-2v-6h-2v6h-2v-6h-2v6c0 1.103.897 2 2 2v6.786c-3.556-1.825-6-5.521-6-9.786 0-6.065 4.935-11 11-11z"/></svg>